<?xml version="1.0" encoding="UTF-8"?> <!-- Generator: Adobe Illustrator 15.0.0, SVG Export Plug-In . SVG Version: 6.00 Build 0) --> <svg xmlns="http://www.w3.org/2000/svg" xmlns:xlink="http://www.w3.org/1999/xlink" version="1.1" id="Ebene_1" x="0px" y="0px" width="288.333px" height="95.333px" viewBox="0 0 288.333 95.333" xml:space="preserve"> <g> <g> <path fill="#8A8A8A" d="M127.243,18.976l-1.165-4.377l0.233-0.28l2.841-0.419l0.28,0.187l1.304,3.259 c0.187-0.605,1.537-3.772,6.38-3.772l0.233,0.28l-0.699,3.912l-0.325,0.233c-0.652-0.326-1.444-0.419-2.422-0.419 c-1.025,0-1.957,0.139-2.934,0.419v18.908l-0.233,0.232h-3.26l-0.232-0.232V18.976z"></path> <path fill="#8A8A8A" d="M140.703,21.816c0-5.216,3.587-8.244,8.848-8.244c5.963,0,8.15,3.634,8.15,6.894 c0,4.61-3.26,6.847-7.686,6.847c-4.562,0-5.681-2.282-5.82-2.608l0.232,1.723v2.422c0,3.586,2.05,5.496,5.216,5.496 c2.795,0,4.191-0.932,5.078-2.468l0.324-0.094l2.795,0.978l0.141,0.279c-1.119,2.98-4.193,4.658-8.152,4.658 c-5.728,0-9.127-2.748-9.127-8.058V21.816z M148.946,24.006c2.562,0,4.844-0.839,4.844-3.727c0-1.63-1.256-3.354-4.379-3.354 c-3.166,0-4.982,1.816-4.982,5.402v0.839C144.429,23.167,146.432,24.006,148.946,24.006z"></path> <path fill="#8A8A8A" d="M162.36,35.276l1.771-2.469l0.373-0.047c0.979,0.839,3.398,1.584,4.842,1.584 c2.422,0,4.658-0.745,4.658-3.633c0-4.75-11.504-2.188-11.504-10.292c0-4.797,4.238-6.848,8.383-6.848 c2.145,0,4.193,0.56,6.008,1.817l0.094,0.325l-1.816,2.47h-0.326c-1.025-0.699-2.561-1.259-3.867-1.259 c-2.746,0-4.654,1.305-4.654,3.494c0,5.169,11.502,2.095,11.502,10.292c0,5.402-3.912,6.986-8.336,6.986 c-2.701,0-5.311-0.792-7.08-2.143L162.36,35.276z"></path> <path fill="#8A8A8A" d="M182.622,21.816c0-5.216,3.586-8.244,8.848-8.244c5.961,0,8.15,3.634,8.15,6.894 c0,4.61-3.26,6.847-7.684,6.847c-4.564,0-5.684-2.282-5.822-2.608l0.234,1.723v2.422c0,3.586,2.049,5.496,5.215,5.496 c2.795,0,4.191-0.932,5.076-2.468l0.326-0.094l2.793,0.978l0.141,0.279c-1.117,2.98-4.189,4.658-8.15,4.658 c-5.729,0-9.127-2.748-9.127-8.058V21.816z M190.864,24.006c2.561,0,4.846-0.839,4.846-3.727c0-1.63-1.26-3.354-4.379-3.354 c-3.166,0-4.982,1.816-4.982,5.402v0.839C186.348,23.167,188.35,24.006,190.864,24.006z"></path> <path fill="#8A8A8A" d="M206.188,25.775c1.723-1.397,4.238-1.77,7.266-1.77h1.631c1.025,0,1.676-0.233,2.049-0.466v-2.188 c0-3.587-2.189-4.426-4.797-4.426c-1.818,0-3.447,0.467-4.611,1.397l-0.373-0.046l-1.582-2.329l0.092-0.373 c1.678-1.304,4.006-2.003,6.52-2.003c4.752,0,8.477,1.91,8.477,7.08v11.923l1.166,4.099l-0.234,0.279l-2.842,0.419l-0.279-0.187 l-1.348-3.354c0,0-1.119,3.866-6.289,3.866c-3.307,0-7.08-1.724-7.08-6.847C203.952,28.523,204.885,26.847,206.188,25.775z M211.637,34.345c2.328,0,5.496-1.351,5.496-1.351v-7.87c-0.559,1.815-2.516,2.327-4.098,2.327h-1.119 c-1.631,0-4.053,0.605-4.053,3.447C207.864,32.947,209.307,34.345,211.637,34.345z"></path> <path fill="#8A8A8A" d="M227.846,18.976l-1.164-4.377l0.234-0.28l2.838-0.419l0.281,0.187l1.303,3.259 c0.188-0.605,1.539-3.772,6.383-3.772l0.232,0.28l-0.699,3.912l-0.326,0.233c-0.652-0.326-1.443-0.419-2.422-0.419 c-1.023,0-1.957,0.139-2.936,0.419v18.908l-0.232,0.232h-3.26l-0.232-0.232V18.976z"></path> <path fill="#8A8A8A" d="M241.307,21.677c0-4.751,3.354-8.104,9.082-8.104c3.492,0,6.613,1.584,7.916,4.751l-0.139,0.28 l-2.795,0.978l-0.326-0.094c-0.838-1.583-2.561-2.562-4.891-2.562c-3.119,0-5.123,1.91-5.123,5.496v6.427 c0,3.586,2.004,5.496,5.123,5.496c2.889,0,4.332-1.024,5.125-2.468l0.324-0.094l2.795,0.978l0.141,0.279 c-1.164,3.028-4.193,4.658-8.15,4.658c-5.729,0-9.082-3.308-9.082-8.058V21.677z"></path> <path fill="#8A8A8A" d="M264.083,4.025l0.232-0.279l3.26-0.465l0.232,0.186v11.689l-0.232,2.05 c0.373-0.839,2.002-3.634,6.707-3.634c4.098,0,7.172,2.748,7.172,8.058v15.276l-0.232,0.232h-3.26l-0.236-0.232v-14.53 c0-4.005-2.281-5.45-5.027-5.45c-1.025,0-4.053,0.839-4.891,1.072v18.908l-0.232,0.232h-3.26l-0.232-0.232V4.025z"></path> </g> <g> <path fill="#48781E" d="M126.777,49.688v-3.865l0.233-0.232h3.866l0.232,0.232v3.865l-0.232,0.233h-3.866L126.777,49.688z M127.057,55.743l0.233-0.28l3.26-0.466l0.233,0.188v22.82l-0.233,0.232h-3.26l-0.233-0.232V55.743z"></path> <path fill="#48781E" d="M138.001,60.075l-1.163-4.378l0.232-0.279l2.841-0.421l0.279,0.188l1.305,3.26 c0.186-0.605,1.537-3.772,6.519-3.772c4.1,0,7.406,2.747,7.406,8.058v15.275l-0.232,0.232h-3.26l-0.234-0.232V63.476 c0-4.006-2.561-5.451-5.217-5.451c-1.023,0-3.865,0.838-4.749,1.073v18.907l-0.233,0.232h-3.262l-0.232-0.232V60.075z"></path> <path fill="#48781E" d="M160.963,76.376l1.77-2.469l0.373-0.048c0.979,0.838,3.4,1.584,4.844,1.584 c2.42,0,4.656-0.746,4.656-3.633c0-4.75-11.502-2.188-11.502-10.292c0-4.798,4.238-6.847,8.383-6.847 c2.143,0,4.191,0.559,6.008,1.816l0.094,0.325l-1.818,2.469h-0.324c-1.023-0.697-2.562-1.258-3.865-1.258 c-2.748,0-4.658,1.306-4.658,3.494c0,5.169,11.504,2.095,11.504,10.292c0,5.403-3.912,6.987-8.338,6.987 c-2.701,0-5.309-0.793-7.078-2.144L160.963,76.376z"></path> <path fill="#48781E" d="M182.622,58.585h-2.516l-0.232-0.233v-2.889l0.232-0.232h2.701l0.418-4.703l0.234-0.28l2.654-0.373 l0.234,0.188v5.169h7.73l0.232,0.232l-0.887,2.889l-0.324,0.233h-6.752V69.81c0,3.167,1.535,5.541,4.098,5.541 c1.77,0,3.447-1.443,3.447-1.443l0.324,0.045l1.443,2.656l-0.092,0.325c-1.539,1.071-3.354,1.864-5.449,1.864 c-4.24,0-7.498-2.89-7.498-8.711V58.585z"></path> <path fill="#48781E" d="M199.34,49.688v-3.865l0.234-0.232h3.867l0.232,0.232v3.865l-0.232,0.233h-3.867L199.34,49.688z M199.622,55.743l0.232-0.28l3.26-0.466l0.232,0.188v22.82l-0.232,0.232h-3.26l-0.232-0.232V55.743z"></path> <path fill="#48781E" d="M211.032,58.585h-2.516l-0.232-0.233v-2.889l0.232-0.232h2.703l0.418-4.703l0.232-0.28l2.654-0.373 l0.234,0.188v5.169h7.73l0.232,0.232l-0.885,2.889l-0.326,0.233h-6.752V69.81c0,3.167,1.537,5.541,4.098,5.541 c1.77,0,3.447-1.443,3.447-1.443l0.326,0.045l1.443,2.656l-0.094,0.325c-1.537,1.071-3.354,1.864-5.449,1.864 c-4.238,0-7.498-2.89-7.498-8.711V58.585z"></path> <path fill="#48781E" d="M227.846,55.743l0.232-0.28l3.26-0.466l0.232,0.188V69.81c0,4.098,2.283,5.634,4.938,5.634 c1.258,0,4.75-1.304,4.75-1.304V55.743l0.232-0.28l3.262-0.466l0.232,0.188v18.49l1.164,4.098l-0.232,0.279l-2.842,0.418 l-0.279-0.185l-1.35-3.354c-0.561,1.724-2.281,3.867-6.475,3.867c-4.145,0-7.125-2.842-7.125-8.198V55.743z"></path> <path fill="#48781E" d="M252.809,58.585h-2.514l-0.232-0.233v-2.889l0.232-0.232h2.701l0.418-4.703l0.234-0.28l2.654-0.373 l0.234,0.188v5.169h7.73l0.232,0.232l-0.887,2.889l-0.324,0.233h-6.752V69.81c0,3.167,1.535,5.541,4.098,5.541 c1.768,0,3.447-1.443,3.447-1.443l0.324,0.045l1.443,2.656l-0.092,0.325c-1.539,1.071-3.355,1.864-5.449,1.864 c-4.24,0-7.5-2.89-7.5-8.711V58.585z"></path> <path fill="#48781E" d="M269.065,62.915c0-5.216,3.588-8.243,8.848-8.243c5.963,0,8.15,3.633,8.15,6.893 c0,4.61-3.26,6.847-7.682,6.847c-4.566,0-5.684-2.281-5.824-2.609l0.234,1.724v2.422c0,3.587,2.049,5.496,5.217,5.496 c2.795,0,4.189-0.931,5.076-2.467l0.324-0.095l2.795,0.978l0.141,0.28c-1.119,2.979-4.191,4.658-8.15,4.658 c-5.729,0-9.129-2.749-9.129-8.058V62.915z M277.307,65.104c2.562,0,4.846-0.839,4.846-3.726c0-1.631-1.258-3.354-4.377-3.354 c-3.168,0-4.984,1.816-4.984,5.403v0.838C272.792,64.266,274.793,65.104,277.307,65.104z"></path> </g> <path fill="#48781E" d="M88.639,64.81v11.249l6.129-2.833c0,0,3.068-1.306,3.068-5.251c0-3.947,0-7.345,0-7.345L88.639,64.81z"></path> <g> <path fill="#48781E" d="M44.943,10.147l7.905,3.685c0,0,3.823,1.687,7.802-0.136c4.056-1.857,7.726-3.557,7.726-3.557 l-8.111-3.761c0,0-3.767-1.569-7.568,0.191C48.663,8.438,44.943,10.147,44.943,10.147z"></path> </g> <path fill="#8A8A8A" d="M15.651,4.42c1.1,0.504,3.273,1.506,6.533,3.016c1.45,0.672,2.002,1.178,2.198,1.407 c-0.313,0.365-1.188,0.914-1.952,1.206l-0.047,0.018l-0.046,0.021l-4.839,2.077l-4.328,1.859l4.27,1.989 c0,0,10.822,5.044,15.74,7.322c3.453,1.601,3.996,5.425,4.056,5.961v4.106l-21.254-9.844l-2.995-1.388v3.301v48.69l-4.412-2.059 c-0.146-0.07-3.587-1.77-3.587-6.61V12.286c0-3.066,2.558-4.407,2.773-4.516L15.651,4.42 M15.684,2.114L6.897,5.847 c0,0-4.018,1.834-4.018,6.439c0,3.642,0,38.229,0,53.207c0,6.358,4.809,8.523,4.809,8.523l7.407,3.457V25.472l24.249,11.231v-7.508 c0,0-0.414-5.52-5.278-7.773c-4.916-2.278-15.736-7.32-15.736-7.32l4.839-2.078c0,0,7.708-2.883-0.099-6.501 C18.135,3.236,15.684,2.114,15.684,2.114L15.684,2.114z"></path> <path fill="#8A8A8A" d="M41.517,78.95l6.731,3.121v8.455l-4.789-2.224c-0.02-0.008-1.942-0.968-1.942-3.941V78.95 M39.408,75.647 c0,0,0,4.301,0,8.714s3.176,5.86,3.176,5.86l7.772,3.61V80.729v-0.005L39.408,75.647L39.408,75.647z"></path> <path fill="#48781E" d="M73.573,83.064c5.66-2.622,6.059-2.821,6.059-2.821V20.726c0,0,0.222-5.164-4.36-3.078 c-4.583,2.086-7.079,3.223-7.079,3.223v56.75C68.193,77.62,67.965,85.661,73.573,83.064z"></path> </g> </svg> 