<?xml version="1.0"?>
<svg width="623" height="121" xmlns="http://www.w3.org/2000/svg" xmlns:svg="http://www.w3.org/2000/svg" xml:space="preserve">
 <g class="layer">
  <title>Layer 1</title>
  <path d="m75.7,26.3l0,20.3c1.5,-1.7 3.2,-4.9 3.2,-10.2c0,-5.1 -1.7,-8.3 -3.2,-10.1m-6.4,56c0.2,-2.3 0.3,-6.5 -1.4,-10.3s-4.7,-6 -6.3,-7c-0.4,1.9 -0.7,5.6 1,9.4c1.7,3.7 4.9,6.5 6.7,7.9m4.2,-35.1l0,-21.5c-1.5,1.6 -3.7,5 -3.7,10.8c-0.1,5.8 2.2,9.1 3.7,10.7m12.9,27.9c1.6,-3.8 1.3,-7.5 0.9,-9.4c-1.6,1 -4.6,3.3 -6.2,7.1s-1.5,8 -1.3,10.3c1.9,-1.3 5,-4.2 6.6,-8m51.3,-64.8c-9.9,-8.1 -28.4,-9.3 -63.6,-9.3c-35,0 -53.4,1.3 -63.3,9.4c-9.9,8.2 -10.8,23.1 -10.8,50c0,27.2 0.9,42.1 10.7,50.3c9.9,8.1 28.3,9.3 63.4,9.4c35.2,0 53.7,-1.2 63.6,-9.4s10.8,-23.2 10.8,-50.3c-0.1,-27 -0.9,-41.9 -10.8,-50.1m-39.8,8.5c1.5,-2.2 4.2,-2.7 4.2,-2.7s4.5,-2.5 8.8,0.9c4.9,3.8 1.7,10.8 1.7,10.8s-1,6.1 -1.3,6.9s-2.2,1.6 -2.2,1.6s-1.1,0.3 -2.3,0.3s-2.5,-0.4 -2.9,-0.6c-0.5,-0.3 -0.6,-1.3 -0.6,-1.3s-0.2,-0.9 -0.4,-1.2c-0.3,-0.3 -2.9,-0.4 -4.7,-3.5c-1.2,-2.1 -0.5,-5 -0.2,-6.8c0.2,-1.7 -0.1,-4.4 -0.1,-4.4m-63.5,-2c4.9,-2.3 10.8,-0.1 13,4.8c1.5,3.2 0.9,4.4 -1.2,5.5c0.3,0.8 0.5,1.6 0.5,2.5c0,3.6 -2.9,6.5 -6.5,6.5c-2.7,0 -5,-1.6 -6,-3.9c-2,0.7 -3.5,0.4 -4.7,-2.2c-2.1,-5.1 -0.1,-10.9 4.9,-13.2m104,80.7l-39.7,0l-0.3,0.9s-2.3,7 -6.6,5.9c-4,-1.1 -2.4,-6.7 -2.4,-6.7l0,-0.1l-13.7,0l0,7.7l-2.2,0l0,-7.7l-12.6,0l0.4,1.9s0.8,3.5 -2.3,4.8c-3.3,1.3 -5.1,-3.1 -5.1,-3.1s-0.7,-1.5 -1.6,-3.5l-42.5,0l0,-2.2l41.5,0l-0.9,-2.4c-1.3,-3.8 -3,-10.4 -3.4,-10.6s-2.9,-0.2 -5.9,-0.6s-5,-1.3 -5.4,-1.2c-0.8,0.2 -7.2,8.4 -11.3,9.2s-8.4,-4.5 -8.4,-4.5l-5.1,-6.7s-2,-2.6 -0.5,-4.1c1.8,-1.8 3.5,-0.5 3.5,-0.5s6.9,4.5 7.7,4.9c0.6,0.3 0.7,0.1 0.7,0.1l1.7,-1.7c0.4,-0.5 0,-0.8 0,-0.8l-4.7,-4.7c-1.1,-1.2 -0.1,-2.9 -0.1,-2.9l10.1,-20.1l-13.2,2.8s-2.5,0.6 -3.1,-1.1s2,-3.1 2,-3.1l17.5,-10.3s0.8,-0.5 1.1,-0.6c0.4,-0.1 1,0.3 1,0.3s2.4,1.9 5.8,1.8c3.3,-0.1 5.3,-2.1 5.3,-2.1s0.5,-0.5 1.1,-0.6s2.1,1.5 2.1,1.5l15.5,17.2s1.7,1.9 0.4,3.5c-1.1,1.4 -3.6,-0.1 -3.6,-0.1s-9.8,-5.9 -10.1,-6c-0.4,-0.1 -0.3,0.4 -0.3,0.4l9.6,42.8l13.1,0l0,-45c-1,-0.6 -6.1,-4.5 -6.1,-13.8c0,-10 6.1,-13.9 6.3,-14.1c0.4,-0.2 0.9,-0.2 1.3,0c0.3,0.2 6.3,4 6.3,14.1c0,8.2 -4,12.2 -5.6,13.4l0,45.4l14.2,0l5.8,-27.8s3.3,-15.7 3.1,-15.8s-11.9,7.5 -11.9,7.5s-1.6,1.5 -3.3,-0.1s0.8,-3.8 0.8,-3.8l14.8,-17.2s0.5,-0.6 1.2,-0.6c0.9,0.1 1,0.7 1,0.7s1.6,4.2 1.9,4.2c0.2,0 2.4,-2.3 2.4,-2.3s1.1,-1.1 1.7,-1.2s0.9,0.5 0.9,0.5l2.4,3.4s0.6,0.8 0.7,0.8c0.2,0 0.3,-0.4 0.3,-0.4l2.9,-5.2s0.6,-1.2 1.2,-1.7c0.6,-0.4 1.8,0.4 1.8,0.4l16.8,10.1s2.3,1.1 1.7,3.3c-0.7,2.6 -4.6,1.2 -4.6,1.2s-11.7,-2.4 -11.9,-2.3c-0.2,0.2 0.1,0.6 0.1,0.6s9.1,20.6 9,21.8c0,1 -1.2,1.7 -1.2,1.7s-3.1,1.9 -3.1,2.2c-0.1,0.3 0.2,0.6 0.2,0.6s1.6,1.7 2,1.8s1.2,-0.4 1.2,-0.4l5.3,-2.8s2.5,-2 4.4,-0.1s-0.7,4.2 -0.7,4.2l-5.2,5.9s-3,4.5 -6,4.8c-3.2,0.3 -6.1,-2.5 -6.1,-2.5s-9.1,-8.9 -9.3,-9.1s-0.4,0.1 -0.4,0.1s-1,2.6 -1.4,3s-1.2,0.6 -1.2,0.6s-3.8,0.5 -4,0.7c-0.2,0.1 -0.3,0.9 -0.3,0.9l-3.7,12.4l39.1,0l0.1,2.2zm-68.4,-26.4c2.7,6.2 1.4,13.1 1.3,13.4c-0.1,0.4 -0.3,0.7 -0.6,0.8s-0.7,0.1 -1,-0.1c-0.2,-0.2 -6.3,-3.8 -9.1,-10s-0.8,-12.1 -0.7,-12.3c0.1,-0.3 0.3,-0.5 0.6,-0.7q0.45,-0.15 0.9,0c0.2,0.1 5.8,2.6 8.6,8.9m17.6,-8.1q0.45,-0.15 0.9,0c0.3,0.1 0.5,0.4 0.6,0.7c0.1,0.2 2.1,6.1 -0.6,12.3s-8.7,9.9 -8.9,10.1c-0.3,0.2 -0.7,0.2 -1,0.1s-0.6,-0.4 -0.6,-0.8c-0.1,-0.3 -1.5,-7.2 1.2,-13.4c2.6,-6.3 8.2,-8.9 8.4,-9" fill="#76b856" id="svg_1"/>
  <path d="m185.4,71.1l8.5,0l0,22.2l21.7,-22.2l10.5,0l-19.4,19.4l20.8,29.2l-10.6,0l-16,-23.3l-7,6.9l0,16.4l-8.5,0l0,-48.6z" fill="#76b856" id="svg_2"/>
  <path d="m232.2,71.1l8.5,0l0,48.7l-8.5,0l0,-48.7z" fill="#76b856" id="svg_3"/>
  <path d="m250.6,71.1l9,0l22.2,35.9l0.1,0l0,-35.9l8.1,0l0,48.7l-9,0l-22.2,-35.8l-0.2,0l0,35.8l-8,0l0,-48.7z" fill="#76b856" id="svg_4"/>
  <path d="m300,71.1l20.2,0c15,0 21.5,10.9 21.5,24.3s-6.5,24.3 -21.5,24.3l-20.2,0l0,-48.6zm8.5,41.8l8.4,0c13.4,0 16.2,-7.6 16.2,-17.4s-2.9,-17.4 -16.2,-17.4l-8.4,0l0,34.8z" fill="#76b856" id="svg_5"/>
  <path d="m349.2,71.1l35,0l0,7.4l-26.5,0l0,12.8l24.5,0l0,7l-24.5,0l0,14.3l27,0l0,7.4l-35.5,0l0,-48.9z" fill="#76b856" id="svg_6"/>
  <path d="m392,71.1l23.3,0c10.6,0 16.1,4.9 16.1,13.2c0,9.3 -6.5,11.7 -8,12.3l0,0.1c2.9,0.4 7.2,2.6 7.2,10.3c0,5.7 0.8,10.8 2.7,12.8l-9.1,0c-1.3,-2.1 -1.3,-4.8 -1.3,-7.2c0,-8.9 -1.8,-12.9 -9.7,-12.9l-12.5,0l0,20l-8.5,0l0,-48.6l-0.2,0zm8.5,22.2l14,0c5.4,0 8.3,-2.7 8.3,-7.8c0,-6.2 -4,-7.4 -8.5,-7.4l-13.8,0l0,15.2z" fill="#76b856" id="svg_7"/>
  <path d="m440.1,71.1l20.2,0c15,0 21.5,10.9 21.5,24.3s-6.5,24.3 -21.5,24.3l-20.2,0l0,-48.6zm8.5,41.8l8.4,0c13.4,0 16.2,-7.6 16.2,-17.4s-2.9,-17.4 -16.2,-17.4l-8.4,0l0,34.8z" fill="#76b856" id="svg_8"/>
  <path d="m533.5,95.5c0,13.9 -8.7,25.5 -23.3,25.5s-23.3,-11.6 -23.3,-25.5s8.7,-25.5 23.3,-25.5c14.5,0 23.3,11.6 23.3,25.5m-38.1,0c0,9.3 4.4,18.5 14.8,18.5s14.8,-9.2 14.8,-18.5s-4.4,-18.5 -14.8,-18.5c-10.5,-0.1 -14.8,9.1 -14.8,18.5" fill="#76b856" id="svg_9"/>
  <path d="m541.1,71.1l23.3,0c10.6,0 16.1,4.9 16.1,13.2c0,9.3 -6.5,11.7 -8,12.3l0,0.1c2.9,0.4 7.2,2.6 7.2,10.3c0,5.7 0.8,10.8 2.7,12.8l-9.1,0c-1.3,-2.1 -1.3,-4.8 -1.3,-7.2c0,-8.9 -1.8,-12.9 -9.7,-12.9l-12.7,0l0,20l-8.5,0l0,-48.6zm8.5,22.2l14,0c5.4,0 8.3,-2.7 8.3,-7.8c0,-6.2 -4,-7.4 -8.5,-7.4l-13.8,0l0,15.2z" fill="#76b856" id="svg_10"/>
  <path d="m589.2,71.1l33.6,0l0,7.4l-25.1,0l0,12.8l22,0l0,7l-22,0l0,21.6l-8.5,0l0,-48.8z" fill="#76b856" id="svg_11"/>
  <path d="m191,33.6c0,7.5 5.5,10.4 12.3,10.4c7.5,0 10.3,-3.7 10.3,-7.4c0,-3.8 -2,-5.3 -4,-6c-3.4,-1.3 -7.8,-2.2 -14.5,-4c-8.3,-2.3 -10.8,-7.3 -10.8,-12.3c0,-9.8 9,-14.3 17.8,-14.3c10.2,0 18.7,5.4 18.7,15.5l-8.5,0c-0.4,-6.3 -4.6,-8.6 -10.5,-8.6c-4,0 -8.9,1.4 -8.9,6.3c0,3.4 2.3,5.3 5.8,6.3c0.7,0.2 11.5,3 14,3.7c6.4,1.9 9.5,7.4 9.5,12.4c0,10.9 -9.7,15.3 -19.4,15.3c-11.1,0 -20.1,-5.3 -20.3,-17.4l8.5,0l0,0.1z" fill="#76b856" id="svg_12"/>
  <path d="m273.3,25.5c0,13.9 -8.7,25.5 -23.3,25.5s-23.3,-11.6 -23.3,-25.5s8.7,-25.5 23.3,-25.5c14.5,0 23.3,11.6 23.3,25.5m-38.1,0c0,9.3 4.4,18.5 14.8,18.5s14.8,-9.2 14.8,-18.5s-4.4,-18.5 -14.8,-18.5c-10.5,-0.1 -14.8,9.1 -14.8,18.5" fill="#76b856" id="svg_13"/>
  <path d="m286.2,33.6c0,7.5 5.5,10.4 12.3,10.4c7.5,0 10.3,-3.7 10.3,-7.4c0,-3.8 -2,-5.3 -4,-6c-3.4,-1.3 -7.8,-2.2 -14.5,-4c-8.3,-2.3 -10.8,-7.3 -10.8,-12.3c0,-9.8 9,-14.3 17.8,-14.3c10.2,0 18.7,5.4 18.7,15.5l-8.5,0c-0.4,-6.3 -4.6,-8.6 -10.5,-8.6c-4,0 -8.9,1.4 -8.9,6.3c0,3.4 2.3,5.3 5.8,6.3c0.7,0.2 11.5,3 14,3.7c6.4,1.9 9.5,7.4 9.5,12.4c0,10.9 -9.7,15.3 -19.4,15.3c-11.1,0 -20.1,-5.3 -20.3,-17.4l8.5,0l0,0.1z" fill="#76b856" id="svg_14"/>
 </g>
</svg>